<svg width="60" height="60" viewBox="0 0 60 60" fill="none" xmlns="http://www.w3.org/2000/svg">
<circle cx="30" cy="30" r="30" fill="#FEF9EB"/>
<path d="M46.6667 21.6667H41.6667V16.6667C41.6667 16.2246 41.4912 15.8007 41.1786 15.4882C40.866 15.1756 40.4421 15 40.0001 15H13.3334C12.8914 15 12.4675 15.1756 12.1549 15.4882C11.8423 15.8007 11.6667 16.2246 11.6667 16.6667V36.6667C11.6667 37.1087 11.8423 37.5326 12.1549 37.8452C12.4675 38.1577 12.8914 38.3333 13.3334 38.3333H18.3334V43.3333C18.3334 43.7754 18.509 44.1993 18.8216 44.5118C19.1341 44.8244 19.5581 45 20.0001 45H46.6667C47.1088 45 47.5327 44.8244 47.8453 44.5118C48.1578 44.1993 48.3334 43.7754 48.3334 43.3333V23.3333C48.3334 22.8913 48.1578 22.4674 47.8453 22.1548C47.5327 21.8423 47.1088 21.6667 46.6667 21.6667ZM15.0001 35V18.3333H38.3334V35H15.0001ZM45.0001 41.6667H21.6667V38.3333H40.0001C40.4421 38.3333 40.866 38.1577 41.1786 37.8452C41.4912 37.5326 41.6667 37.1087 41.6667 36.6667V25H45.0001V41.6667ZM30.0001 26.6667C30.0001 27.3259 29.8046 27.9704 29.4383 28.5186C29.072 29.0667 28.5514 29.494 27.9424 29.7463C27.3333 29.9986 26.663 30.0646 26.0164 29.936C25.3698 29.8073 24.7759 29.4899 24.3097 29.0237C23.8435 28.5575 23.5261 27.9636 23.3975 27.317C23.2688 26.6704 23.3349 26.0001 23.5871 25.3911C23.8394 24.782 24.2667 24.2614 24.8148 23.8951C25.363 23.5288 26.0075 23.3333 26.6667 23.3333C27.5508 23.3333 28.3986 23.6845 29.0238 24.3096C29.6489 24.9348 30.0001 25.7826 30.0001 26.6667ZM21.6667 26.6667C21.6667 27.1087 21.4912 27.5326 21.1786 27.8452C20.866 28.1577 20.4421 28.3333 20.0001 28.3333H18.3334C17.8914 28.3333 17.4675 28.1577 17.1549 27.8452C16.8423 27.5326 16.6667 27.1087 16.6667 26.6667C16.6667 26.2246 16.8423 25.8007 17.1549 25.4882C17.4675 25.1756 17.8914 25 18.3334 25H20.0001C20.4421 25 20.866 25.1756 21.1786 25.4882C21.4912 25.8007 21.6667 26.2246 21.6667 26.6667ZM36.6667 26.6667C36.6667 27.1087 36.4912 27.5326 36.1786 27.8452C35.866 28.1577 35.4421 28.3333 35.0001 28.3333H33.3334C32.8914 28.3333 32.4675 28.1577 32.1549 27.8452C31.8423 27.5326 31.6667 27.1087 31.6667 26.6667C31.6667 26.2246 31.8423 25.8007 32.1549 25.4882C32.4675 25.1756 32.8914 25 33.3334 25H35.0001C35.4421 25 35.866 25.1756 36.1786 25.4882C36.4912 25.8007 36.6667 26.2246 36.6667 26.6667Z" fill="#FAC137"/>
</svg>
