<svg width="134" height="157" viewBox="0 0 134 157" fill="none" xmlns="http://www.w3.org/2000/svg">
<path d="M2.76562 144.328C2.11979 143.839 1.96354 143.344 2.29688 142.844L3.5 141.031C3.89583 140.438 4.47396 140.406 5.23438 140.938C5.81771 141.344 6.57812 141.766 7.51562 142.203C8.46354 142.63 9.45833 142.844 10.5 142.844C11.2292 142.844 11.9323 142.76 12.6094 142.594C13.2865 142.427 13.8021 142.104 14.1562 141.625C14.5104 141.146 14.6875 140.578 14.6875 139.922C14.6875 139.453 14.6094 139.042 14.4531 138.688C14.2969 138.333 14.0417 138.042 13.6875 137.812C13.3333 137.583 12.9688 137.391 12.5938 137.234C11.9375 136.964 11.1094 136.698 10.1094 136.438C9.11979 136.167 8.14062 135.844 7.17188 135.469C6.30729 135.135 5.51562 134.677 4.79688 134.094C4.07812 133.51 3.52083 132.854 3.125 132.125C2.72917 131.396 2.53125 130.422 2.53125 129.203C2.53125 127.755 3 126.516 3.9375 125.484C4.875 124.453 5.95312 123.792 7.17188 123.5C8.39062 123.208 9.61979 123.062 10.8594 123.062C12.0885 123.062 13.3542 123.25 14.6562 123.625C15.9688 124 16.9583 124.469 17.625 125.031C18.2812 125.583 18.4427 126.083 18.1094 126.531L16.8438 128.234C16.4167 128.818 15.8438 128.865 15.125 128.375C14.6667 128.062 14.0365 127.714 13.2344 127.328C12.4427 126.943 11.6146 126.75 10.75 126.75C10.1354 126.75 9.56771 126.802 9.04688 126.906C8.53646 127.01 8.08333 127.26 7.6875 127.656C7.29167 128.052 7.09375 128.542 7.09375 129.125C7.09375 129.688 7.23958 130.146 7.53125 130.5C7.82292 130.844 8.14583 131.104 8.5 131.281C8.85417 131.448 9.21354 131.589 9.57812 131.703C10.7031 132.068 11.7083 132.391 12.5938 132.672C13.4792 132.943 14.2969 133.245 15.0469 133.578C16.0885 134.047 16.8854 134.516 17.4375 134.984C17.9896 135.453 18.4427 136.094 18.7969 136.906C19.1615 137.719 19.3438 138.688 19.3438 139.812C19.3438 141.479 18.8125 142.859 17.75 143.953C16.6875 145.036 15.5052 145.734 14.2031 146.047C12.9115 146.37 11.651 146.531 10.4219 146.531C8.60938 146.531 7.13542 146.354 6 146C4.86458 145.656 3.78646 145.099 2.76562 144.328ZM22.5312 139.188V130.531C22.5312 129.906 22.8438 129.594 23.4688 129.594H25.9688C26.5938 129.594 26.9062 129.906 26.9062 130.531V138.062C26.9062 140.333 27.0625 141.766 27.375 142.359C27.6875 142.953 28.3438 143.25 29.3438 143.25C30.4062 143.25 31.2135 142.828 31.7656 141.984C32.3177 141.13 32.5938 139.365 32.5938 136.688V130.531C32.5938 129.906 32.9062 129.594 33.5312 129.594H36.0312C36.6562 129.594 36.9688 129.906 36.9688 130.531V145.062C36.9688 145.688 36.6562 146 36.0312 146H33.5625C32.9375 146 32.625 145.688 32.625 145.062V144.156H32.5625C32.0833 144.979 31.474 145.547 30.7344 145.859C29.9948 146.161 29.1198 146.312 28.1094 146.312C26.5156 146.312 25.1875 145.802 24.125 144.781C23.0625 143.76 22.5312 141.896 22.5312 139.188ZM40.3438 137.797C40.3438 135.141 41.0104 133.057 42.3438 131.547C43.6771 130.036 45.724 129.281 48.4844 129.281C50.099 129.281 51.3542 129.495 52.25 129.922C53.1458 130.349 53.8646 130.974 54.4062 131.797C54.7292 132.286 54.6771 132.672 54.25 132.953L52.5938 134.047C52.125 134.359 51.7135 134.24 51.3594 133.688C51.1823 133.417 50.8438 133.125 50.3438 132.812C49.8438 132.5 49.224 132.344 48.4844 132.344C47.3073 132.344 46.4271 132.76 45.8438 133.594C45.2604 134.417 44.9688 135.818 44.9688 137.797C44.9688 139.776 45.2604 141.182 45.8438 142.016C46.4271 142.839 47.3073 143.25 48.4844 143.25C49.3281 143.25 50.0104 143.073 50.5312 142.719C51.0521 142.365 51.5417 141.906 52 141.344C52.3958 140.865 52.8125 140.797 53.25 141.141L54.7031 142.281C55.1406 142.625 55.1667 143.083 54.7812 143.656C54.375 144.26 53.6823 144.854 52.7031 145.438C51.7344 146.021 50.3281 146.312 48.4844 146.312C45.724 146.312 43.6771 145.557 42.3438 144.047C41.0104 142.536 40.3438 140.453 40.3438 137.797ZM57.3125 137.797C57.3125 135.141 57.9792 133.057 59.3125 131.547C60.6458 130.036 62.6927 129.281 65.4531 129.281C67.0677 129.281 68.3229 129.495 69.2188 129.922C70.1146 130.349 70.8333 130.974 71.375 131.797C71.6979 132.286 71.6458 132.672 71.2188 132.953L69.5625 134.047C69.0938 134.359 68.6823 134.24 68.3281 133.688C68.151 133.417 67.8125 133.125 67.3125 132.812C66.8125 132.5 66.1927 132.344 65.4531 132.344C64.276 132.344 63.3958 132.76 62.8125 133.594C62.2292 134.417 61.9375 135.818 61.9375 137.797C61.9375 139.776 62.2292 141.182 62.8125 142.016C63.3958 142.839 64.276 143.25 65.4531 143.25C66.2969 143.25 66.9792 143.073 67.5 142.719C68.0208 142.365 68.5104 141.906 68.9688 141.344C69.3646 140.865 69.7812 140.797 70.2188 141.141L71.6719 142.281C72.1094 142.625 72.1354 143.083 71.75 143.656C71.3438 144.26 70.651 144.854 69.6719 145.438C68.7031 146.021 67.2969 146.312 65.4531 146.312C62.6927 146.312 60.6458 145.557 59.3125 144.047C57.9792 142.536 57.3125 140.453 57.3125 137.797ZM74.2812 137.797C74.2812 135.161 74.9375 133.083 76.25 131.562C77.5729 130.042 79.4375 129.281 81.8438 129.281C84.6354 129.281 86.7083 130 88.0625 131.438C89.4167 132.875 90.0938 135.188 90.0938 138.375C90.0938 139 89.8021 139.312 89.2188 139.312H78.9062C79.0729 141.042 79.5 142.13 80.1875 142.578C80.875 143.026 81.6719 143.25 82.5781 143.25C83.4427 143.25 84.1042 143.135 84.5625 142.906C85.0208 142.677 85.4062 142.365 85.7188 141.969C86.0729 141.51 86.5104 141.438 87.0312 141.75L88.5938 142.703C89.2083 143.078 89.2969 143.526 88.8594 144.047C88.224 144.807 87.4792 145.375 86.625 145.75C85.7708 146.125 84.4219 146.312 82.5781 146.312C79.5885 146.312 77.4583 145.552 76.1875 144.031C74.9167 142.51 74.2812 140.432 74.2812 137.797ZM78.9219 136.188H85.7188C85.7188 135.062 85.4375 134.146 84.875 133.438C84.3125 132.719 83.4167 132.359 82.1875 132.359C81.2083 132.359 80.4323 132.703 79.8594 133.391C79.2865 134.068 78.974 135 78.9219 136.188ZM93.1719 144.906C92.6615 144.542 92.5208 144.151 92.75 143.734L93.5469 142.281C93.8281 141.76 94.2656 141.698 94.8594 142.094C95.4531 142.49 96.151 142.781 96.9531 142.969C97.7656 143.156 98.5052 143.25 99.1719 143.25C99.6406 143.25 100.078 143.203 100.484 143.109C100.891 143.016 101.234 142.833 101.516 142.562C101.797 142.292 101.938 141.896 101.938 141.375C101.938 141.062 101.854 140.797 101.688 140.578C101.521 140.359 101.307 140.193 101.047 140.078C100.786 139.964 100.51 139.87 100.219 139.797C99.8333 139.703 99.276 139.547 98.5469 139.328C97.8281 139.109 97.1354 138.854 96.4688 138.562C95.9167 138.323 95.375 137.99 94.8438 137.562C94.3229 137.125 93.9375 136.641 93.6875 136.109C93.4479 135.578 93.3281 134.922 93.3281 134.141C93.3281 133.089 93.6302 132.167 94.2344 131.375C94.849 130.583 95.6406 130.036 96.6094 129.734C97.5781 129.432 98.7865 129.281 100.234 129.281C101.214 129.281 102.167 129.422 103.094 129.703C104.021 129.984 104.682 130.25 105.078 130.5C105.703 130.896 105.859 131.318 105.547 131.766L104.594 133.156C104.302 133.573 103.833 133.604 103.188 133.25C102.698 132.979 102.214 132.76 101.734 132.594C101.266 132.427 100.74 132.344 100.156 132.344C99.7604 132.344 99.3802 132.385 99.0156 132.469C98.651 132.552 98.3385 132.708 98.0781 132.938C97.8281 133.167 97.7031 133.469 97.7031 133.844C97.7031 134.24 97.8177 134.552 98.0469 134.781C98.2865 135 98.5573 135.161 98.8594 135.266C99.1719 135.37 99.4688 135.469 99.75 135.562C100.333 135.75 100.922 135.932 101.516 136.109C102.109 136.276 102.714 136.479 103.328 136.719C103.859 136.927 104.375 137.224 104.875 137.609C105.375 137.995 105.74 138.484 105.969 139.078C106.198 139.672 106.312 140.349 106.312 141.109C106.312 142.12 106.01 143.057 105.406 143.922C104.802 144.786 104.005 145.401 103.016 145.766C102.026 146.13 100.875 146.312 99.5625 146.312C98.0938 146.312 96.8438 146.208 95.8125 146C94.7812 145.792 93.901 145.427 93.1719 144.906ZM108.891 144.906C108.38 144.542 108.24 144.151 108.469 143.734L109.266 142.281C109.547 141.76 109.984 141.698 110.578 142.094C111.172 142.49 111.87 142.781 112.672 142.969C113.484 143.156 114.224 143.25 114.891 143.25C115.359 143.25 115.797 143.203 116.203 143.109C116.609 143.016 116.953 142.833 117.234 142.562C117.516 142.292 117.656 141.896 117.656 141.375C117.656 141.062 117.573 140.797 117.406 140.578C117.24 140.359 117.026 140.193 116.766 140.078C116.505 139.964 116.229 139.87 115.938 139.797C115.552 139.703 114.995 139.547 114.266 139.328C113.547 139.109 112.854 138.854 112.188 138.562C111.635 138.323 111.094 137.99 110.562 137.562C110.042 137.125 109.656 136.641 109.406 136.109C109.167 135.578 109.047 134.922 109.047 134.141C109.047 133.089 109.349 132.167 109.953 131.375C110.568 130.583 111.359 130.036 112.328 129.734C113.297 129.432 114.505 129.281 115.953 129.281C116.932 129.281 117.885 129.422 118.812 129.703C119.74 129.984 120.401 130.25 120.797 130.5C121.422 130.896 121.578 131.318 121.266 131.766L120.312 133.156C120.021 133.573 119.552 133.604 118.906 133.25C118.417 132.979 117.932 132.76 117.453 132.594C116.984 132.427 116.458 132.344 115.875 132.344C115.479 132.344 115.099 132.385 114.734 132.469C114.37 132.552 114.057 132.708 113.797 132.938C113.547 133.167 113.422 133.469 113.422 133.844C113.422 134.24 113.536 134.552 113.766 134.781C114.005 135 114.276 135.161 114.578 135.266C114.891 135.37 115.188 135.469 115.469 135.562C116.052 135.75 116.641 135.932 117.234 136.109C117.828 136.276 118.432 136.479 119.047 136.719C119.578 136.927 120.094 137.224 120.594 137.609C121.094 137.995 121.458 138.484 121.688 139.078C121.917 139.672 122.031 140.349 122.031 141.109C122.031 142.12 121.729 143.057 121.125 143.922C120.521 144.786 119.724 145.401 118.734 145.766C117.745 146.13 116.594 146.312 115.281 146.312C113.812 146.312 112.562 146.208 111.531 146C110.5 145.792 109.62 145.427 108.891 144.906ZM125.719 124.766C125.698 123.984 126.062 123.594 126.812 123.594H129.312C130.062 123.594 130.427 123.984 130.406 124.766L129.984 138.422C129.964 139.099 129.625 139.438 128.969 139.438H127.156C126.5 139.438 126.161 139.099 126.141 138.422L125.719 124.766ZM126.875 146C126.146 146 125.781 145.609 125.781 144.828V142.734C125.781 141.953 126.146 141.562 126.875 141.562H129.25C129.979 141.562 130.344 141.953 130.344 142.734V144.828C130.344 145.609 129.979 146 129.25 146H126.875Z" fill="#16B188"/>
<path d="M45 50.2071L57.5904 63.7658C57.7009 63.8848 57.8939 63.8684 57.9828 63.7325L82 27" stroke="#16B188" stroke-width="3" stroke-linecap="round"/>
<circle cx="63.5" cy="45.5" r="44" stroke="#16B188" stroke-width="3"/>
</svg>
